<svg version="1.1" viewBox="0 0 2048 1641" width="575" height="461" xmlns="http://www.w3.org/2000/svg" xmlns:bx="https://boxy-svg.com" preserveAspectRatio="none"><defs><bx:export><bx:file format="svg" path="Untitled 2.svg"></bx:file></bx:export></defs><path d="M 1423 706 L 1430 706 L 1441 709 L 1450 715 L 1455 719 L 1464 731 L 1472 747 L 1478 765 L 1482 785 L 1484 803 L 1484 851 L 1483 877 L 1483 916 L 1486 937 L 1493 963 L 1503 989 L 1512 1008 L 1525 1031 L 1537 1052 L 1551 1075 L 1561 1092 L 1570 1108 L 1577 1122 L 1588 1149 L 1595 1173 L 1598 1190 L 1599 1207 L 1597 1216 L 1593 1222 L 1587 1227 L 1578 1230 L 1564 1229 L 1543 1222 L 1523 1212 L 1498 1197 L 1484 1187 L 1468 1174 L 1458 1165 L 1440 1147 L 1429 1131 L 1420 1116 L 1411 1099 L 1401 1074 L 1395 1056 L 1385 1016 L 1375 981 L 1367 960 L 1358 940 L 1347 922 L 1337 911 L 1323 902 L 1311 899 L 1302 901 L 1299 902 L 1296 913 L 1298 927 L 1303 940 L 1315 957 L 1323 966 L 1334 980 L 1343 991 L 1355 1008 L 1367 1026 L 1375 1041 L 1382 1061 L 1385 1076 L 1385 1087 L 1381 1096 L 1375 1103 L 1367 1107 L 1363 1108 L 1342 1108 L 1318 1102 L 1291 1091 L 1266 1078 L 1250 1067 L 1238 1058 L 1227 1047 L 1219 1034 L 1217 1026 L 1217 1011 L 1225 991 L 1232 972 L 1236 955 L 1237 948 L 1236 932 L 1233 917 L 1229 905 L 1221 889 L 1211 873 L 1198 850 L 1194 841 L 1189 820 L 1189 805 L 1193 791 L 1200 779 L 1206 772 L 1214 765 L 1227 757 L 1238 752 L 1253 748 L 1272 746 L 1283 746 L 1296 748 L 1305 752 L 1314 758 L 1320 763 L 1331 778 L 1342 799 L 1348 817 L 1356 846 L 1366 881 L 1377 913 L 1388 941 L 1398 965 L 1407 984 L 1415 1000 L 1429 1025 L 1447 1055 L 1457 1068 L 1465 1078 L 1475 1089 L 1486 1097 L 1494 1100 L 1500 1098 L 1501 1095 L 1501 1082 L 1498 1068 L 1490 1048 L 1481 1031 L 1473 1019 L 1449 985 L 1437 969 L 1424 950 L 1413 934 L 1403 918 L 1394 902 L 1385 882 L 1377 857 L 1372 837 L 1369 815 L 1368 804 L 1368 785 L 1371 764 L 1374 752 L 1384 731 L 1395 718 L 1406 711 L 1417 707 L 1423 706 Z" fill="#FEFEFE" data-index="0" style="opacity: 1; visibility: visible; fill: rgb(0, 0, 0);"></path><path d="M 995 765 L 1018 765 L 1047 767 L 1074 771 L 1091 775 L 1113 783 L 1137 796 L 1147 804 L 1161 818 L 1171 831 L 1179 844 L 1186 858 L 1195 882 L 1201 906 L 1204 931 L 1204 946 L 1201 966 L 1194 983 L 1182 997 L 1168 1007 L 1153 1014 L 1128 1020 L 1102 1024 L 1056 1029 L 985 1040 L 950 1048 L 922 1056 L 898 1062 L 893 1063 L 878 1063 L 872 1060 L 870 1057 L 869 1050 L 872 1038 L 879 1021 L 888 1004 L 902 982 L 911 968 L 920 952 L 927 936 L 932 918 L 932 904 L 926 890 L 916 876 L 905 860 L 899 848 L 897 841 L 897 828 L 901 813 L 908 799 L 917 789 L 929 780 L 945 773 L 966 768 L 981 766 Z M 1000 802 L 990 807 L 983 815 L 979 828 L 979 835 L 982 843 L 990 852 L 1008 866 L 1021 876 L 1025 881 L 1028 887 L 1028 894 L 1023 904 L 1012 918 L 997 934 L 988 945 L 984 953 L 983 962 L 985 967 L 990 971 L 998 973 L 1006 973 L 1025 971 L 1050 966 L 1066 960 L 1082 952 L 1093 943 L 1102 932 L 1107 922 L 1111 907 L 1111 882 L 1110 876 L 1105 859 L 1099 846 L 1090 833 L 1081 824 L 1070 815 L 1059 809 L 1047 804 L 1029 800 L 1009 800 Z" fill="#FEFEFE" data-index="1" style="opacity: 1; visibility: visible; fill: rgb(0, 0, 0);"></path><path d="M 814.587 351.263 L 829.587 353.263 L 839.587 357.263 L 853.587 366.263 L 863.587 376.263 L 872.587 390.263 L 879.587 406.263 L 884.587 425.263 L 887.587 444.263 L 888.587 454.263 L 888.587 485.263 L 884.587 512.263 L 878.587 538.263 L 862.587 588.263 L 858.587 612.263 L 858.587 630.263 L 862.587 646.263 L 868.587 655.263 L 871.587 657.263 L 878.587 658.263 L 885.587 655.263 L 893.587 648.263 L 902.587 636.263 L 913.587 622.263 L 921.587 615.263 L 929.587 611.263 L 932.587 610.263 L 947.587 610.263 L 960.587 614.263 L 972.587 621.263 L 981.59 630.263 L 987.59 640.263 L 991.59 651.263 L 996.93 692.589 L 996.78 692.589 L 996.78 697.664 L 997.24 697.664 L 993.59 712.263 L 987.59 724.263 L 981.59 729.263 L 978.587 730.263 L 966.587 730.263 L 948.587 719.263 L 938.587 713.263 L 928.587 710.263 L 918.587 710.263 L 906.587 715.263 L 892.587 724.263 L 884.587 727.263 L 877.587 727.263 L 867.587 724.263 L 861.587 720.263 L 854.587 712.263 L 847.587 700.263 L 840.587 679.263 L 837.587 667.263 L 834.587 643.263 L 834.587 555.263 L 831.587 535.263 L 824.587 510.263 L 813.587 482.263 L 803.587 459.263 L 795.587 434.263 L 790.587 413.263 L 788.587 398.263 L 788.587 379.263 L 791.587 367.263 L 797.587 357.263 L 807.587 352.263 L 814.587 351.263 Z" fill="#FEFEFE" style="opacity: 1; visibility: visible; fill: rgb(0, 0, 0);" data-index="2"></path><path d="M 1016.59 634.263 L 1021.59 609.263 L 1031.59 565.263 L 1033.59 547.263 L 1033.59 525.263 L 1029.59 505.263 L 1019.59 473.263 L 1015.59 454.263 L 1013.59 437.263 L 1013.59 423.263 L 1015.59 409.263 L 1019.59 400.263 L 1024.59 393.263 L 1033.59 387.263 L 1039.59 385.263 L 1050.59 384.263 L 1062.59 386.263 L 1070.59 390.263 L 1079.59 398.263 L 1083.59 407.263 L 1083.59 421.263 L 1079.59 433.263 L 1066.59 458.263 L 1063.59 469.263 L 1063.59 485.263 L 1068.59 502.263 L 1079.59 529.263 L 1084.59 545.263 L 1086.59 554.263 L 1086.59 573.263 L 1083.59 590.263 L 1078.59 606.263 L 1065.59 641.263 L 1061.59 659.263 L 1061.59 679.263 L 1065.59 689.263 L 1072.59 697.263 L 1076.59 699.263 L 1086.59 699.263 L 1094.59 696.263 L 1103.59 688.263 L 1111.59 672.263 L 1116.59 653.263 L 1118.59 642.263 L 1118.59 621.263 L 1106.59 583.263 L 1092.59 543.263 L 1086.59 516.263 L 1084.59 500.263 L 1084.59 482.263 L 1087.59 458.263 L 1093.59 437.263 L 1101.59 419.263 L 1110.59 407.263 L 1120.59 398.263 L 1134.59 390.263 L 1146.59 385.263 L 1160.59 382.263 L 1174.59 382.263 L 1185.59 386.263 L 1192.59 394.263 L 1194.59 398.263 L 1195.59 405.263 L 1195.59 420.263 L 1192.59 436.263 L 1186.59 452.263 L 1166.59 493.263 L 1155.59 518.263 L 1149.59 539.263 L 1146.59 556.263 L 1145.59 574.263 L 1147.59 595.263 L 1147.59 648.263 L 1144.59 669.263 L 1138.59 690.263 L 1132.59 705.263 L 1123.59 721.263 L 1112.59 734.263 L 1100.59 743.263 L 1090.59 748.263 L 1080.59 750.263 L 1066.59 750.263 L 1053.59 746.263 L 1043.59 740.263 L 1034.59 731.263 L 1026.59 718.263 L 1022.241 704.346 C 1021.878 703.709 1021.554 703.071 1021.282 702.467 C 1020.659 701.081 1020.356 700.122 1020.057 698.384 C 1019.799 696.884 1019.497 694.691 1019.39 692.589 L 1018.47 692.589 L 1016.59 634.263 Z" fill="#FEFEFE" style="opacity: 1; visibility: visible; fill: rgb(0, 0, 0);" data-index="3"></path><path d="M 1018.65 698.128 L 1018.59 697.664 L 1018.63 697.664 L 1018.65 698.128 Z" fill="#FEFEFE" style="" data-index="4"></path><path transform="translate(702,725)" d="m0 0h21l12 4 13 7 10 10 6 12 3 11 1 8v26l-4 24-7 26-7 19-10 23-12 22-13 23-13 21-10 16-18 27-20 32-15 25-14 25-9 17-9 23-5 19v8l3 4 6 1 10-6 11-8 21-21 9-11 9-10 9-11 13-15 22-24 20-20 11-9 14-10 15-8 19-7 13-4 11-2h21l11 4 7 5 6 10 1 4v9l-4 15-8 16-7 11-15 16-9 9-18 13-18 10-15 7-29 11-24 10-18 10-14 10-11 9-17 16-15 16-16 16-7 8-10 10-7 8-11 11-8 7-10 9-15 11-10 5-7 1-5-3-3-5-1-8v-9l4-25 8-31 9-27 16-41 19-44 15-36 8-24 9-36 3-19 1-11v-82l2-20 7-37 7-25 9-24 10-20 8-12 9-10 8-7 14-7z" fill="#FEFEFE" data-index="5" style="opacity: 1; visibility: visible; fill: rgb(0, 0, 0);"></path><path d="M 1657.88 223.271 L 1670.88 223.271 L 1678.88 227.271 L 1684.88 234.271 L 1687.88 242.271 L 1688.88 249.271 L 1688.88 265.271 L 1685.88 287.271 L 1678.88 317.271 L 1669.88 348.271 L 1657.88 383.271 L 1647.88 409.271 L 1629.88 453.271 L 1618.88 479.271 L 1604.88 509.271 L 1596.88 525.271 L 1581.88 554.271 L 1570.88 573.271 L 1557.88 594.271 L 1545.88 612.271 L 1533.88 629.271 L 1524.88 640.271 L 1515.88 650.271 L 1508.88 658.271 L 1494.88 671.271 L 1479.88 682.271 L 1465.88 690.271 L 1448.88 695.271 L 1438.88 695.271 L 1432.88 692.271 L 1429.88 688.271 L 1428.88 685.271 L 1428.88 674.271 L 1434.88 653.271 L 1448.88 616.271 L 1461.88 589.271 L 1472.88 566.271 L 1480.88 550.271 L 1490.88 527.271 L 1501.88 499.271 L 1508.88 478.271 L 1511.88 464.271 L 1513.88 443.271 L 1513.88 390.271 L 1516.88 375.271 L 1521.88 357.271 L 1531.88 333.271 L 1540.88 316.271 L 1553.88 297.271 L 1566.88 282.271 L 1575.88 272.271 L 1586.88 262.271 L 1604.88 249.271 L 1619.88 239.271 L 1640.88 228.271 Z M 1621.58 273.78 L 1611.58 280.78 L 1602.58 290.78 L 1596.58 300.78 L 1588.58 316.78 L 1582.58 332.78 L 1578.58 347.78 L 1578.58 368.78 L 1581.58 391.78 L 1581.58 403.78 L 1579.58 413.78 L 1573.58 431.78 L 1561.58 456.78 L 1553.58 472.78 L 1545.58 486.78 L 1539.58 497.78 L 1530.58 513.78 L 1522.58 532.78 L 1518.58 546.78 L 1517.58 556.78 L 1520.58 559.78 L 1526.58 560.78 L 1531.58 557.78 L 1543.58 547.78 L 1554.58 533.78 L 1570.58 509.78 L 1583.58 486.78 L 1599.58 453.78 L 1614.58 418.78 L 1625.58 390.78 L 1633.58 366.78 L 1641.58 336.78 L 1647.58 305.78 L 1648.58 289.78 L 1647.58 284.78 L 1642.58 274.78 L 1636.58 270.78 L 1630.58 270.78 Z" fill="#FEFEFE" data-index="6" style="opacity: 1; visibility: visible; fill: rgb(0, 0, 0);"></path><path d="M 607.383 271 L 623.383 271 L 637.383 274 L 655.383 281 L 673.383 291 L 684.383 299 L 696.383 310 L 706.383 320 L 717.383 335 L 726.383 351 L 732.383 366 L 735.383 378 L 736.383 386 L 736.383 397 L 732.383 408 L 728.383 413 L 721.383 416 L 711.383 415 L 703.383 412 L 693.383 404 L 683.383 393 L 669.383 374 L 659.383 360 L 648.383 348 L 641.383 343 L 638.383 342 L 629.383 342 L 626.383 346 L 626.383 358 L 631.383 374 L 639.383 390 L 646.383 401 L 659.383 416 L 672.383 425 L 684.383 430 L 689.383 431 L 715.383 431 L 727.383 434 L 736.383 440 L 744.383 448 L 753.383 462 L 759.383 476 L 762.383 490 L 760.383 508 L 757.383 513 L 751.383 517 L 750.383 518 L 741.383 517 L 727.383 513 L 710.383 513 L 701.383 517 L 693.383 524 L 689.383 535 L 688.383 548 L 691.383 568 L 697.383 589 L 704.383 608 L 710.383 620 L 720.383 635 L 729.383 646 L 738.383 654 L 748.383 659 L 752.383 660 L 765.383 660 L 771.383 656 L 775.383 650 L 776.383 644 L 776.383 633 L 772.383 620 L 767.383 612 L 763.383 610 L 756.383 610 L 747.383 617 L 741.383 617 L 735.383 613 L 728.383 606 L 721.383 594 L 714.383 573 L 712.383 565 L 711.383 552 L 713.383 539 L 719.383 527 L 724.383 525 L 735.383 525 L 747.383 528 L 759.383 534 L 769.383 542 L 779.383 553 L 791.383 572 L 799.383 592 L 804.383 608 L 808.383 628 L 809.383 638 L 809.383 674 L 806.383 688 L 801.383 700 L 795.383 709 L 787.383 716 L 776.383 720 L 761.383 720 L 748.383 716 L 737.383 710 L 726.383 701 L 719.383 695 L 710.383 684 L 702.383 673 L 693.383 658 L 684.383 642 L 672.383 615 L 662.383 588 L 654.383 559 L 648.383 533 L 647.383 526 L 647.383 497 L 649.383 488 L 656.383 474 L 661.383 470 L 660.383 465 L 653.383 456 L 645.383 447 L 631.383 428 L 621.383 413 L 612.383 397 L 603.383 378 L 595.383 358 L 589.383 339 L 585.383 322 L 585.383 297 L 588.383 287 L 593.383 279 L 601.383 273 L 607.383 271 Z" fill="#FEFEFE" data-index="7" style="opacity: 1; visibility: visible; fill: rgb(0, 0, 0);"></path><path d="M 1335.01 348.272 L 1351.01 348.272 L 1362.01 352.272 L 1369.01 360.272 L 1373.01 370.272 L 1375.01 381.272 L 1375.01 401.272 L 1372.01 421.272 L 1366.01 446.272 L 1356.01 476.272 L 1345.01 503.272 L 1335.01 522.272 L 1322.01 541.272 L 1314.01 551.272 L 1305.01 561.272 L 1297.01 568.272 L 1289.01 573.272 L 1273.01 579.272 L 1269.01 580.272 L 1261.01 580.272 L 1255.01 577.272 L 1248.01 570.272 L 1247.01 566.272 L 1247.01 557.272 L 1251.01 540.272 L 1256.01 530.272 L 1266.01 516.272 L 1278.01 503.272 L 1289.01 491.272 L 1298.01 480.272 L 1306.01 471.272 L 1315.01 454.272 L 1318.01 445.272 L 1318.01 429.272 L 1315.01 424.272 L 1309.01 423.272 L 1295.01 428.272 L 1283.01 435.272 L 1270.01 445.272 L 1258.01 457.272 L 1249.01 468.272 L 1235.01 487.272 L 1222.01 511.272 L 1215.01 526.272 L 1205.01 556.272 L 1200.01 580.272 L 1200.01 607.272 L 1203.01 621.272 L 1208.01 631.272 L 1216.01 638.272 L 1223.01 640.272 L 1234.01 639.272 L 1243.01 635.272 L 1252.01 629.272 L 1266.01 615.272 L 1275.01 604.272 L 1282.01 597.272 L 1288.01 590.272 L 1301.01 581.272 L 1306.01 579.272 L 1314.01 579.272 L 1320.01 583.272 L 1323.01 590.272 L 1323.01 608.272 L 1319.01 625.272 L 1311.01 646.272 L 1303.01 664.272 L 1295.01 676.272 L 1286.01 688.272 L 1277.01 698.272 L 1268.01 707.272 L 1252.01 718.272 L 1239.01 723.272 L 1230.01 725.272 L 1216.01 725.272 L 1205.01 721.272 L 1196.01 714.272 L 1188.01 704.272 L 1181.01 690.272 L 1176.01 676.272 L 1171.01 653.272 L 1169.01 632.272 L 1169.01 615.272 L 1171.01 572.272 L 1176.01 540.272 L 1182.01 515.272 L 1188.01 495.272 L 1195.01 477.272 L 1209.01 448.272 L 1216.01 436.272 L 1232.01 414.272 L 1244.01 401.272 L 1253.01 391.272 L 1261.01 384.272 L 1275.01 373.272 L 1288.01 365.272 L 1305.01 356.272 L 1323.01 350.272 L 1335.01 348.272 Z" fill="#FEFEFE" data-index="8" style="opacity: 1; visibility: visible; fill: rgb(0, 0, 0);"></path><path d="M 1478.1 282.728 L 1486.1 282.728 L 1492.1 286.728 L 1494.1 291.728 L 1494.1 306.728 L 1490.1 322.728 L 1479.1 350.728 L 1463.1 384.728 L 1450.1 412.728 L 1440.1 436.728 L 1434.1 456.728 L 1431.1 470.728 L 1430.1 550.728 L 1427.1 573.728 L 1421.1 599.728 L 1416.1 616.728 L 1406.1 642.728 L 1398.1 660.728 L 1388.1 677.728 L 1379.1 689.728 L 1371.1 698.728 L 1361.1 705.728 L 1354.1 708.728 L 1345.1 707.728 L 1340.1 703.728 L 1337.1 696.728 L 1337.1 682.728 L 1342.1 662.728 L 1351.1 638.728 L 1362.1 614.728 L 1373.1 592.728 L 1386.1 560.728 L 1396.1 531.728 L 1402.1 504.728 L 1403.1 494.728 L 1404.1 412.728 L 1408.1 384.728 L 1414.1 361.728 L 1423.1 336.728 L 1432.1 319.728 L 1441.1 307.728 L 1450.1 297.728 L 1457.1 291.728 L 1471.1 284.728 L 1478.1 282.728 Z" fill="#FEFEFE" data-index="9" style="opacity: 1; visibility: visible; fill: rgb(0, 0, 0);"></path></svg>